<?xml version="1.0" encoding="UTF-8"?>
<svg version="1.1" xmlns="http://www.w3.org/2000/svg" width="1417" height="1417">
<path d="M0 0 C4.38276465 0.02822691 8.76545556 0.0147234 13.14827895 0.00773382 C20.49485028 0.00237292 27.84075993 0.02891089 35.1871736 0.07563543 C43.62354816 0.1289283 52.05882201 0.13230191 60.49530751 0.1088587 C68.6929498 0.08714597 76.89020247 0.09979269 85.08781409 0.12796926 C88.54070088 0.13934408 91.99329566 0.13944074 95.44618583 0.12983847 C117.22362731 0.08466212 137.23407023 0.63346966 156.613199 12.0087409 C157.46784743 12.48714422 158.32249587 12.96554754 159.20304275 13.45844793 C161.86102383 14.96248331 164.48875648 16.50954046 167.113199 18.0712409 C168.00523025 18.58751043 168.8972615 19.10377996 169.816324 19.63569403 C170.66710525 20.14165106 171.5178865 20.64760809 172.394449 21.16889715 C173.15821853 21.61886053 173.92198806 22.06882391 174.70890212 22.53242254 C176.83908219 24.18385829 177.51673251 25.58692016 178.613199 28.0087409 C179.92572782 28.71548719 181.26195973 29.37915797 182.613199 30.0087409 C183.97074278 31.23133997 185.28167852 32.50698802 186.550699 33.8212409 C187.19909743 34.48768621 187.84749587 35.15413153 188.51554275 35.84077215 C189.20776931 36.55620184 189.89999587 37.27163153 190.613199 38.0087409 C191.40081618 38.75768621 192.18843337 39.50663153 192.99991775 40.27827215 C205.97845542 53.83880703 213.69724269 70.33150466 218.57023025 88.23139715 C219.52720588 91.89735104 219.52720588 91.89735104 220.68741775 94.94233465 C223.17223402 103.17263329 222.7615916 111.93507288 222.75846267 120.44794989 C222.76146059 121.7827897 222.76486456 123.11762865 222.76864028 124.45246649 C222.77741807 128.05373449 222.7798157 131.65497868 222.78045607 135.25625634 C222.78116988 137.51156864 222.78331039 139.76687499 222.78595328 142.0221858 C222.79518467 149.90515921 222.79929076 157.78811578 222.79850173 165.67109442 C222.79790087 172.99595409 222.80845994 180.32074014 222.82424539 187.64558119 C222.83735535 193.95584899 222.84268421 200.26609281 222.84204632 206.57637411 C222.84179244 210.33583792 222.84458294 214.09523614 222.85522437 217.85468626 C222.86496432 221.3916007 222.86494452 224.92838761 222.85770774 228.46530676 C222.85617777 230.36698293 222.86446639 232.26865925 222.87314773 234.17031622 C222.84816994 241.03917655 222.24927114 247.33915198 220.613199 254.0087409 C220.24154629 255.65184374 219.87039242 257.29505955 219.49991775 258.9384284 C216.60408903 271.05363015 213.17629712 282.31332174 206.613199 293.0087409 C205.953199 293.0087409 205.293199 293.0087409 204.613199 293.0087409 C204.33733962 293.74608465 204.06148025 294.4834284 203.7772615 295.2431159 C198.69987894 307.30615902 188.07155166 317.49362678 178.113199 325.6337409 C176.73648025 326.76682684 176.73648025 326.76682684 175.331949 327.9228034 C168.70308664 333.0087409 168.70308664 333.0087409 165.613199 333.0087409 C165.613199 333.6687409 165.613199 334.3287409 165.613199 335.0087409 C156.79322472 339.56812535 148.11531937 344.02768353 138.613199 347.0087409 C137.44530837 347.3799909 136.27741775 347.7512409 135.0741365 348.1337409 C129.03501684 349.9645477 123.96968112 351.23460575 117.613199 351.0087409 C117.613199 351.6687409 117.613199 352.3287409 117.613199 353.0087409 C98.98558784 353.03206883 80.35797964 353.04971955 61.73035693 353.06055307 C53.08184295 353.06571626 44.43333802 353.07275938 35.78482985 353.08418036 C28.2495532 353.09412651 20.71428311 353.10059417 13.17900008 353.1028294 C9.18664047 353.10413662 5.19429963 353.1072232 1.20194602 353.11447096 C-2.55147199 353.1212301 -6.30486339 353.12335808 -10.05828691 353.12184858 C-11.43982994 353.12212496 -12.82137382 353.12413071 -14.20291162 353.12794638 C-16.08117245 353.1328819 -17.95944738 353.13113886 -19.83771348 353.12899542 C-20.89132286 353.12991721 -21.94493224 353.130839 -23.03046918 353.13178873 C-25.386801 353.0087409 -25.386801 353.0087409 -26.386801 352.0087409 C-28.21428164 351.68240507 -30.04934897 351.39822263 -31.886801 351.1337409 C-37.33216462 350.25504265 -42.23926681 348.95373754 -47.386801 347.0087409 C-48.38453538 346.6478034 -49.38226975 346.2868659 -50.4102385 345.9149909 C-62.57811588 341.40622874 -73.12726248 335.97497082 -83.386801 328.0087409 C-84.2427385 327.3693659 -85.098676 326.7299909 -85.980551 326.0712409 C-92.20257245 321.30870597 -97.35722171 316.00445407 -102.386801 310.0087409 C-102.95785569 309.34745184 -103.52891038 308.68616278 -104.11726975 308.00483465 C-126.13043627 281.28576556 -130.03847231 252.6720294 -129.92410302 219.19077754 C-129.91380382 215.21817747 -129.92341484 211.24560984 -129.92964768 207.27300787 C-129.93687668 200.60713215 -129.9274635 193.94143505 -129.90828538 187.27558661 C-129.88653478 179.62852409 -129.89357405 171.9818887 -129.915591 164.33483654 C-129.93389273 157.70652255 -129.93623182 151.07833521 -129.92583632 144.45000404 C-129.91968042 140.51872233 -129.9185419 136.58763958 -129.93198228 132.65637159 C-129.99783869 110.32791513 -129.58706515 88.40926918 -119.386801 68.0087409 C-118.726801 68.0087409 -118.066801 68.0087409 -117.386801 68.0087409 C-117.26434007 67.4312409 -117.14187913 66.8537409 -117.01570725 66.2587409 C-114.14109539 55.97441524 -105.94440893 45.25690346 -98.386801 38.0087409 C-97.45287522 37.04001043 -97.45287522 37.04001043 -96.50008225 36.05170965 C-86.90054909 26.16065054 -73.35388261 13.69471813 -59.386801 11.0087409 C-59.386801 10.3487409 -59.386801 9.6887409 -59.386801 9.0087409 C-39.4354144 0.61651458 -21.26479963 -0.17166517 0 0 Z " fill="#23022E" transform="translate(174.3868010044098,0.9912590980529785)"/>
<path d="M0 0 C3.50819698 0.01133513 7.01618824 0.00017342 10.52437556 -0.01077205 C18.81723773 -0.03644913 27.10953118 -0.02729468 35.40235376 0.0056808 C43.8836335 0.03889797 52.36351305 0.01779695 60.84468591 -0.0310213 C68.19672158 -0.07166506 75.54833292 -0.080414 82.90046275 -0.06419021 C87.26070805 -0.0547078 91.62019023 -0.05565253 95.98035288 -0.08658719 C121.73190954 -0.24871026 143.74008267 2.41350529 165.84717798 16.9732101 C167.00370489 17.70010418 168.16127744 18.42533697 169.31983423 19.14899135 C177.69095895 24.50455301 177.69095895 24.50455301 178.84717798 27.9732101 C180.71467169 29.03479822 180.71467169 29.03479822 182.84717798 29.9732101 C196.58927546 39.64470855 206.21642063 56.3289712 213.53467798 71.0357101 C214.08792749 72.10438319 214.08792749 72.10438319 214.65235376 73.19464564 C223.44375182 91.4938514 222.44785608 111.55977544 222.38448 131.33554459 C222.37421673 135.55026119 222.38378188 139.76494626 222.39002466 143.97966456 C222.39726208 151.05090125 222.3878161 158.12196976 222.36866236 165.1931808 C222.34689269 173.32310402 222.35396144 181.45262583 222.37596798 189.58253938 C222.3942242 196.61329295 222.39663103 203.64392696 222.3862133 210.67469662 C222.38003517 214.85179841 222.37898351 219.02871263 222.39235926 223.20580173 C222.50054121 262.30050543 222.50054121 262.30050543 213.65967798 279.6607101 C213.27021997 280.44905238 212.88076197 281.23739467 212.4795022 282.04962611 C206.79068798 293.3300392 200.27608179 303.0405888 191.52295923 312.15680385 C189.56653633 314.21604605 187.80785697 316.24995922 186.03077173 318.4497726 C182.70828615 322.36156755 178.85497782 325.09167229 174.59717798 327.9107101 C173.87788111 328.4037765 173.15858423 328.89684291 172.41749048 329.40485072 C167.13176536 332.9732101 167.13176536 332.9732101 164.84717798 332.9732101 C164.84717798 333.6332101 164.84717798 334.2932101 164.84717798 334.9732101 C152.3954607 341.50194834 140.16453376 346.14660077 126.47413111 349.27423549 C125.64461939 349.4675143 124.81510767 349.6607931 123.96045923 349.85992885 C123.21578394 350.02710414 122.47110865 350.19427943 121.70386744 350.36652064 C119.62928666 350.88942904 119.62928666 350.88942904 117.84717798 352.9732101 C115.38900232 353.22489238 115.38900232 353.22489238 112.22925806 353.22717738 C111.03458918 353.23281703 109.83992029 353.23845668 108.60904932 353.24426723 C107.29157709 353.24021876 105.97410486 353.2361703 104.61670923 353.23199916 C103.22066042 353.23470805 101.82461303 353.2382684 100.42856836 353.24261928 C96.63111749 353.25175775 92.83377495 353.24819306 89.03632212 353.2418611 C85.06807897 353.23680863 81.0998453 353.24149046 77.13160181 353.24463344 C70.46678989 353.24827528 63.80202225 353.24346827 57.13721704 353.23395228 C49.42436948 353.2230673 41.71162764 353.22659273 33.99878263 353.23760509 C27.38474384 353.24667176 20.77073693 353.2479663 14.15669394 353.24272776 C10.20288786 353.23960463 6.24913153 353.23920807 2.29532862 353.24580073 C-1.42122759 353.25156458 -5.13764706 353.24759509 -8.85418844 353.23601222 C-10.87435482 353.23209229 -12.89453271 353.23805947 -14.91469336 353.24426723 C-16.10936224 353.23862758 -17.30403112 353.23298793 -18.5349021 353.22717738 C-19.5776177 353.22642333 -20.62033331 353.22566928 -21.69464636 353.22489238 C-24.15282202 352.9732101 -24.15282202 352.9732101 -26.15282202 350.9732101 C-27.90532998 350.40989102 -29.68472292 349.92885656 -31.47313452 349.49274135 C-33.1020664 349.08221522 -33.1020664 349.08221522 -34.763906 348.66339564 C-35.92349829 348.37375941 -37.08309057 348.08412318 -38.27782202 347.7857101 C-49.7281804 344.82659337 -61.21241934 341.60014522 -71.15282202 334.9732101 C-71.15282202 334.3132101 -71.15282202 333.6532101 -71.15282202 332.9732101 C-71.86438452 332.72313197 -72.57594702 332.47305385 -73.30907202 332.2153976 C-76.45090444 330.84300376 -78.90460263 329.1439352 -81.65282202 327.0982101 C-82.57063452 326.42016322 -83.48844702 325.74211635 -84.43407202 325.0435226 C-90.09024423 320.73637997 -94.57666722 316.3830055 -99.15282202 310.9732101 C-99.94172827 310.08375697 -100.73063452 309.19430385 -101.54344702 308.2778976 C-121.13144529 285.745691 -130.49259623 256.46620861 -130.42748022 226.82770228 C-130.43259115 225.59636058 -130.43770208 224.36501887 -130.44296789 223.09636378 C-130.45437147 219.7633627 -130.45695602 216.43061281 -130.45440459 213.09761024 C-130.45332269 210.29265987 -130.45824911 207.48773155 -130.46301001 204.68278599 C-130.47404632 198.0522004 -130.47457644 191.42167148 -130.46849585 184.79108119 C-130.46246549 178.00302124 -130.47475675 171.21516906 -130.49606591 164.42714453 C-130.51381458 158.55230633 -130.51966248 152.67753347 -130.51642817 146.80266953 C-130.51463561 143.31462586 -130.51704388 139.82673031 -130.53114271 136.3387115 C-130.59699045 118.54256782 -130.55970756 100.87362947 -124.46532202 83.9107101 C-124.08077856 82.81267055 -124.08077856 82.81267055 -123.68846655 81.69244838 C-118.2900151 66.71102302 -111.22448211 54.31381886 -101.15282202 41.9732101 C-100.71389624 41.42753383 -100.27497046 40.88185756 -99.82274389 40.31964564 C-97.40522091 37.35281183 -94.91648758 34.6698843 -92.02782202 32.1607101 C-91.36524389 31.57676478 -90.70266577 30.99281947 -90.02000952 30.39117885 C-88.15282202 28.9732101 -88.15282202 28.9732101 -85.15282202 27.9732101 C-84.87954077 27.36992885 -84.60625952 26.7666476 -84.32469702 26.1450851 C-81.90131027 21.65374166 -76.29288863 19.54902429 -71.96288061 17.04205775 C-70.2690616 16.04185009 -68.60965427 14.984 -66.95360327 13.92242885 C-45.78249653 0.77029378 -24.17072345 -0.10790624 0 0 Z " fill="#23022E" transform="translate(1155.1528220176697,1.026789903640747)"/>
<path d="M0 0 C4.39827395 0.02064923 8.79643326 0.00136375 13.19471431 -0.01108932 C20.57155476 -0.02553033 27.94774867 -0.00676483 35.32449031 0.03163528 C43.78370372 0.07516916 52.24137364 0.0610302 60.7005499 0.01702404 C68.03992903 -0.01958934 75.37885075 -0.0242545 82.71829194 -0.00346661 C87.0684065 0.00883628 91.41780209 0.01114992 95.76786685 -0.01575851 C120.07552472 -0.14539094 140.39081152 1.84070886 161.54299617 15.07460403 C162.87946024 15.85257457 164.21869135 16.6258443 165.56252742 17.39101028 C174.71203064 22.75019081 182.01551297 28.84173866 189.19216609 36.63466263 C190.43277933 37.95711643 191.73552733 39.22055194 193.04299617 40.47694778 C213.93429329 62.1843112 222.87923575 92.12055834 222.81765437 121.67323685 C222.82532077 123.61022194 222.82532077 123.61022194 222.83314204 125.58633804 C222.84638643 129.08869364 222.84712703 132.59094037 222.84457874 136.09331608 C222.84349871 139.03748852 222.84841864 141.98163986 222.85318416 144.92580771 C222.86422976 151.88378888 222.86474528 158.84171603 222.85867 165.79970169 C222.85263881 172.93028321 222.86493086 180.06066699 222.88624007 187.1912148 C222.90397108 193.3556108 222.90983935 199.51994453 222.90660232 205.68436503 C222.90480699 209.34732883 222.90724699 213.01015166 222.92131686 216.67309189 C222.9844863 234.63708719 222.6772774 251.60925261 216.98049617 268.82460403 C216.77231257 269.46913528 216.56412898 270.11366653 216.34963679 270.77772903 C210.71011384 288.03219425 200.56895195 303.52754368 187.54299617 316.07460403 C186.71799617 316.91636185 185.89299617 317.75811966 185.04299617 318.62538528 C182.47873321 321.13756165 179.82191457 323.42807242 177.04299617 325.69960403 C175.66627742 326.83268997 175.66627742 326.83268997 174.26174617 327.98866653 C167.63288381 333.07460403 167.63288381 333.07460403 164.54299617 333.07460403 C164.54299617 333.73460403 164.54299617 334.39460403 164.54299617 335.07460403 C161.23473502 336.79460707 157.89830379 338.44832977 154.54299617 340.07460403 C153.70897273 340.48194778 152.87494929 340.88929153 152.01565242 341.30897903 C144.04223899 344.91516308 135.77575825 346.96519041 127.2883575 349.01967239 C126.31793513 349.25822952 125.34751277 349.49678665 124.34768367 349.74257278 C123.47096004 349.95164261 122.5942364 350.16071243 121.69094539 350.37611771 C119.36088539 350.95419839 119.36088539 350.95419839 117.54299617 353.07460403 C115.10437369 353.33187294 115.10437369 353.33187294 111.97218013 353.34202957 C110.19535098 353.35482452 110.19535098 353.35482452 108.3826263 353.36787796 C106.42291392 353.3665184 106.42291392 353.3665184 104.4236114 353.36513138 C103.03891837 353.37111351 101.65422868 353.37791832 100.26954341 353.3854866 C96.50056497 353.40319522 92.73167728 353.40784427 88.96266127 353.40911818 C86.60637902 353.41053865 84.25011992 353.41480646 81.89384341 353.42011261 C73.6683996 353.43863542 65.44302069 353.44678122 57.21755672 353.4452095 C49.56043401 353.44401045 41.90359427 353.46506035 34.24654311 353.49669683 C27.66805917 353.52290431 21.08966729 353.53357479 14.51113158 353.53229868 C10.58440579 353.53178996 6.65793084 353.53742185 2.7312572 353.55865479 C-0.96819073 353.57811043 -4.6671507 353.57811224 -8.36661649 353.56362152 C-10.3604132 353.5605538 -12.35421033 353.57716234 -14.34793401 353.5945015 C-20.7952513 353.54959011 -25.81803973 353.12649887 -31.55140901 350.0500164 C-34.95536748 348.30764013 -38.68763389 347.67271953 -42.39450383 346.82460403 C-49.3731692 345.1105703 -55.89331355 342.87811244 -62.45700383 339.94960403 C-63.21618108 339.61283646 -63.97535832 339.27606888 -64.75754094 338.92909622 C-68.27840275 337.30241221 -70.74802329 335.8764483 -73.45700383 333.07460403 C-75.44458493 331.72282774 -77.44609031 330.39142011 -79.45700383 329.07460403 C-81.48990465 327.61206664 -83.51075949 326.1326466 -85.51950383 324.63710403 C-86.52110539 323.8958931 -87.52270696 323.15468216 -88.55466008 322.39101028 C-91.41426122 320.10871758 -93.92566815 317.71295553 -96.45700383 315.07460403 C-97.18661321 314.31921341 -97.91622258 313.56382278 -98.66794133 312.78554153 C-104.08059974 306.9429969 -108.37504905 300.89758159 -112.45700383 294.07460403 C-112.97005071 293.28569778 -113.48309758 292.49679153 -114.01169133 291.68397903 C-125.5631971 273.60856586 -129.59912455 252.83867536 -129.61813664 231.67641068 C-129.62277358 230.33337139 -129.6277994 228.99033341 -129.63318181 227.64729691 C-129.64622848 224.01658015 -129.65273623 220.38588182 -129.65719247 216.75514531 C-129.66013735 214.4781751 -129.66424485 212.20120975 -129.66869664 209.92424202 C-129.68235477 202.7753658 -129.69202815 195.62650091 -129.69589853 188.47761256 C-129.70036729 180.27212655 -129.71786712 172.06680812 -129.74689913 163.86137301 C-129.7686491 157.48902085 -129.77860994 151.11671535 -129.77993965 144.74432653 C-129.78097874 140.95272725 -129.78669157 137.16128581 -129.80475926 133.36972618 C-129.88713041 115.04930211 -129.86742059 97.33248726 -123.70700383 79.82460403 C-123.45168889 79.08210403 -123.19637395 78.33960403 -122.93332219 77.57460403 C-119.08011701 66.77492296 -113.30865163 57.24079058 -106.45700383 48.07460403 C-105.89110539 47.30374466 -105.32520696 46.53288528 -104.74216008 45.73866653 C-100.71936011 40.39317723 -96.32428792 35.65835701 -91.45700383 31.07460403 C-90.86532414 30.50097122 -90.27364446 29.92733841 -89.66403508 29.33632278 C-81.77302637 22.01737014 -70.12804125 13.12672661 -59.45700383 11.07460403 C-59.45700383 10.41460403 -59.45700383 9.75460403 -59.45700383 9.07460403 C-39.49888492 0.68649363 -21.2745633 -0.13170107 0 0 Z " fill="#23022E" transform="translate(664.4570038318634,0.9253959655761719)"/>
<path d="M0 0 C1.36522607 -0.00736315 2.73044595 -0.01595578 4.09565735 -0.02566528 C7.76572546 -0.04766683 11.43556764 -0.05082242 15.10569263 -0.04891777 C18.19355388 -0.04879695 21.28136919 -0.05740719 24.36921746 -0.06569529 C31.67260926 -0.0848569 38.97588684 -0.08784154 46.27929688 -0.08105469 C53.75185916 -0.07443659 61.223925 -0.09720454 68.69638675 -0.13436842 C75.16236036 -0.16533051 81.6281766 -0.17639661 88.09422261 -0.1725316 C91.9335012 -0.17048924 95.77239415 -0.17554275 99.61160088 -0.20042419 C121.22437012 -0.32954927 142.08964449 0.6415432 161.83813477 10.41992188 C163.07897137 11.02028319 164.31986003 11.62053691 165.56079102 12.22070312 C174.86844571 16.7734625 174.86844571 16.7734625 178.83813477 19.41992188 C178.83813477 20.07992187 178.83813477 20.73992188 178.83813477 21.41992188 C179.55485352 21.66613281 180.27157227 21.91234375 181.01000977 22.16601562 C194.21240046 28.01956178 204.75434118 41.93757838 212.83813477 53.41992188 C213.60383789 54.46792969 214.36954102 55.5159375 215.15844727 56.59570312 C224.57795551 69.93239193 229.01388811 85.28496323 231.33032227 101.30664062 C231.50432662 104.28079738 231.50432662 104.28079738 232.83813477 105.41992188 C232.93677825 107.25255535 232.96445621 109.08903017 232.96511841 110.92431641 C232.96793823 112.11905579 232.97075806 113.31379517 232.97366333 114.54473877 C232.97171874 115.88073745 232.96967055 117.21673599 232.9675293 118.55273438 C232.96888331 119.95025681 232.97066324 121.34777889 232.97283936 122.74530029 C232.97741368 126.55098082 232.97562413 130.35663435 232.97246027 134.16231537 C232.96993666 138.13636856 232.97227421 142.11041938 232.97384644 146.08447266 C232.97566813 152.75944435 232.97326183 159.43440499 232.96850586 166.109375 C232.96306324 173.83753151 232.96482589 181.56566165 232.97033226 189.29381752 C232.9748634 195.91715535 232.97551394 202.54048521 232.9728936 209.16382408 C232.97133082 213.1248658 232.97113706 217.0858951 232.97443008 221.04693604 C232.97730881 224.77000418 232.9753331 228.49303816 232.96953583 232.2161026 C232.96820823 233.58635654 232.96860234 234.95661333 232.97079849 236.32686615 C232.97350999 238.1897522 232.96951518 240.05264451 232.96511841 241.91552734 C232.96474138 242.96046356 232.96436436 244.00539978 232.96397591 245.08200073 C232.83813477 247.41992188 232.83813477 247.41992188 231.83813477 248.41992188 C231.54217371 250.17439607 231.25165097 251.92996262 230.98876953 253.68969727 C229.90107883 260.86374385 228.34174515 267.64394259 225.90063477 274.48242188 C225.65998291 275.15917969 225.41933105 275.8359375 225.17138672 276.53320312 C223.38765118 281.34508578 221.19140623 285.86077609 218.83813477 290.41992188 C218.17813477 290.41992188 217.51813477 290.41992188 216.83813477 290.41992188 C216.48041992 291.69802734 216.48041992 291.69802734 216.11547852 293.00195312 C214.69807736 296.79469322 212.76148036 299.85897862 210.40063477 303.10742188 C209.96686523 303.7095752 209.5330957 304.31172852 209.08618164 304.93212891 C204.61289468 310.98000011 199.57506623 316.53954615 193.83813477 321.41992188 C193.17813477 321.41992188 192.51813477 321.41992188 191.83813477 321.41992188 C191.83813477 322.07992188 191.83813477 322.73992187 191.83813477 323.41992188 C178.67263896 336.34273573 159.10377956 345.51140495 141.27563477 349.54492188 C140.55956055 349.71378906 139.84348633 349.88265625 139.10571289 350.05664062 C130.20248336 352.11434791 121.82777456 352.57701574 112.69287109 352.59692383 C111.37798203 352.60349503 110.06309296 352.61006622 108.70835876 352.61683655 C104.36230669 352.63777418 100.01625473 352.64823685 95.67016602 352.65820312 C94.16399303 352.66225607 92.65782021 352.66637314 91.15164757 352.67055321 C84.06416756 352.68959098 76.9766978 352.70381878 69.88919717 352.71216518 C61.76122079 352.72189928 53.63351952 352.74812379 45.50563985 352.78866607 C39.19101123 352.81905999 32.87646034 352.83365626 26.56176013 352.83694619 C22.80632089 352.83927245 19.05117585 352.84790818 15.29581642 352.87340736 C-27.53467219 353.14930395 -27.53467219 353.14930395 -46.16186523 343.41992188 C-46.16186523 342.75992187 -46.16186523 342.09992188 -46.16186523 341.41992188 C-46.82186523 341.33742188 -47.48186523 341.25492188 -48.16186523 341.16992188 C-54.97341684 339.46703397 -60.78412005 335.50297996 -66.66186523 331.79492188 C-67.29793701 331.39853516 -67.93400879 331.00214844 -68.58935547 330.59375 C-70.15048813 329.5911526 -71.66155615 328.51143888 -73.16186523 327.41992188 C-73.16186523 326.75992187 -73.16186523 326.09992188 -73.16186523 325.41992188 C-73.69424805 325.20207031 -74.22663086 324.98421875 -74.77514648 324.75976562 C-78.02721757 322.93413488 -80.6285633 320.49973802 -83.34936523 317.98242188 C-83.8952832 317.49193359 -84.44120117 317.00144531 -85.00366211 316.49609375 C-87.53247889 314.1740947 -89.05898126 312.72857381 -90.16186523 309.41992188 C-90.82186523 309.41992188 -91.48186523 309.41992188 -92.16186523 309.41992188 C-98.38384201 301.44527558 -103.35404315 292.30146848 -108.16186523 283.41992188 C-108.89083008 282.08380859 -108.89083008 282.08380859 -109.63452148 280.72070312 C-113.79302991 272.41640342 -115.38691807 263.46524266 -117.16186523 254.41992188 C-117.41722943 253.30505826 -117.41722943 253.30505826 -117.67775249 252.16767216 C-118.20138216 249.19562979 -118.29670817 246.42819308 -118.30903625 243.4105072 C-118.31619156 242.20407059 -118.32334686 240.99763397 -118.33071899 239.75463867 C-118.3334079 238.43882812 -118.3360968 237.12301758 -118.33886719 235.76733398 C-118.3451376 234.36063979 -118.3517849 232.95394724 -118.35877991 231.54725647 C-118.37977902 226.93060448 -118.39018818 222.31395237 -118.40014648 217.69726562 C-118.40419758 216.10008795 -118.4083146 214.50291044 -118.41249657 212.90573311 C-118.43155034 205.38896153 -118.445773 197.87219969 -118.45410854 190.35540861 C-118.4638391 181.72595477 -118.49004741 173.09676029 -118.53060943 164.46739763 C-118.56098696 157.77064698 -118.57559825 151.07396965 -118.57888955 144.37715155 C-118.58121831 140.39141756 -118.58988766 136.40596045 -118.61535072 132.42030144 C-118.75792453 108.85865184 -118.82880369 83.82773512 -105.16186523 63.41992188 C-104.17186523 62.92492188 -104.17186523 62.92492188 -103.16186523 62.41992188 C-102.46132086 60.76720902 -101.80000183 59.09771921 -101.16186523 57.41992188 C-98.11970107 51.56163671 -94.77663199 46.645497 -89.95092773 42.13867188 C-88.02630718 40.28969143 -86.32388417 38.3309178 -84.59936523 36.29492188 C-81.68442726 32.92042161 -78.74165016 30.08394787 -75.16186523 27.41992188 C-74.50186523 27.41992188 -73.84186523 27.41992188 -73.16186523 27.41992188 C-73.16186523 26.75992188 -73.16186523 26.09992187 -73.16186523 25.41992188 C-71.4691569 24.50846354 -69.77644857 23.59700521 -68.08374023 22.68554688 C-66.06940398 21.4737626 -66.06940398 21.4737626 -64.47436523 19.55664062 C-61.17746582 16.51035011 -57.46067298 14.86070155 -53.41186523 12.98242188 C-52.56930176 12.58845215 -51.72673828 12.19448242 -50.85864258 11.78857422 C-43.15252361 8.26971237 -35.36725326 5.53156923 -27.16186523 3.41992188 C-26.25554824 3.17373863 -25.34923124 2.92755539 -24.4154501 2.67391205 C-16.17056454 0.57724057 -8.48509473 -0.01994896 0 0 Z " fill="#23022E" transform="translate(163.161865234375,982.580078125)"/>
<path d="M0 0 C3.73095128 0.01293569 7.46185088 0.00084399 11.19280553 -0.00693083 C17.45158192 -0.01595011 23.71006042 -0.00424682 29.96879125 0.01977205 C37.13369047 0.04695656 44.29787723 0.03815751 51.4627592 0.01064003 C57.68950945 -0.01228804 63.91604931 -0.01513701 70.14282829 -0.00216663 C73.82884514 0.00550135 77.51453099 0.00703095 81.20052457 -0.00984907 C105.20488882 -0.10461484 132.83779096 0.83543332 153.59208226 14.67162752 C153.59208226 15.33162752 153.59208226 15.99162752 153.59208226 16.67162752 C154.87792211 17.03707674 154.87792211 17.03707674 156.18973851 17.40990877 C173.76887406 23.9289223 188.0498818 41.46936709 197.49784398 56.96288729 C198.6334008 58.73614972 199.87011425 60.39408448 201.13895726 62.07397127 C203.88219748 65.8730363 205.575079 69.8644326 207.21708226 74.23412752 C207.51630589 75.01699129 207.81552953 75.79985506 208.12382054 76.60644197 C211.1383738 84.7381291 212.95985068 92.90071071 214.09989476 101.50365877 C214.25043998 104.52670783 214.25043998 104.52670783 215.59208226 105.67162752 C215.69072575 107.504261 215.71840371 109.34073582 215.7190659 111.17602205 C215.72188573 112.37076143 215.72470555 113.56550081 215.72761083 114.79644442 C215.72566624 116.1324431 215.72361805 117.46844164 215.72147679 118.80444002 C215.72283081 120.20196246 215.72461074 121.59948454 215.72678685 122.99700594 C215.73136118 126.80268646 215.72957163 130.60834 215.72640777 134.41402102 C215.72388416 138.38807421 215.7262217 142.36212502 215.72779393 146.3361783 C215.72961563 153.01114999 215.72720932 159.68611063 215.72245336 166.36108065 C215.71701073 174.08923716 215.71877339 181.81736729 215.72427976 189.54552317 C215.7288109 196.16886099 215.72946144 202.79219085 215.72684109 209.41552973 C215.72527832 213.37657145 215.72508456 217.33760075 215.72837758 221.29864168 C215.7312563 225.02170983 215.72928059 228.74474381 215.72348332 232.46780825 C215.72215573 233.83806218 215.72254983 235.20831898 215.72474599 236.5785718 C215.72745748 238.44145785 215.72346268 240.30435015 215.7190659 242.16723299 C215.71868888 243.21216921 215.71831185 244.25710543 215.7179234 245.33370638 C215.59208226 247.67162752 215.59208226 247.67162752 214.59208226 248.67162752 C214.3144835 250.39273984 214.04181603 252.11478366 213.79325414 253.84032869 C211.60248662 268.65916557 206.70167779 284.08568033 197.65458226 296.17162752 C195.55967245 298.99140649 193.53319585 301.76470604 191.65458226 304.73412752 C188.37279105 309.4081938 184.48368448 313.5015912 180.59208226 317.67162752 C179.9514182 318.37803377 179.31075414 319.08444002 178.65067601 319.81225252 C173.312139 325.4739995 167.17850235 329.57441999 160.59208226 333.67162752 C159.68844945 334.24268221 158.78481664 334.8137369 157.85380101 335.40209627 C155.59208226 336.67162752 155.59208226 336.67162752 153.59208226 336.67162752 C153.59208226 337.33162752 153.59208226 337.99162752 153.59208226 338.67162752 C148.36639038 341.36894674 143.18876811 343.75037588 137.65458226 345.73412752 C137.02229711 345.9771158 136.39001195 346.22010408 135.73856664 346.47045565 C118.22824825 352.76348713 99.86619055 352.1220938 81.55236173 352.07460403 C77.64327331 352.066903 73.73420394 352.07408154 69.82511449 352.07876253 C63.26578983 352.08419016 56.70656715 352.07710781 50.14725804 352.0627408 C42.60987238 352.04642007 35.07273034 352.05171072 27.53535056 352.06822002 C21.01418066 352.08192097 14.49308324 352.08371288 7.97190356 352.07590401 C4.09886213 352.07127438 0.22593445 352.07047028 -3.64709926 352.08051348 C-22.57256441 352.12291358 -40.75718303 352.03364616 -58.78291774 345.42162752 C-59.62813991 345.11716707 -60.47336207 344.81270662 -61.34419703 344.4990201 C-68.00436949 342.00842717 -73.62812836 338.81075623 -79.40791774 334.67162752 C-80.64067094 333.88243505 -81.87800201 333.10036581 -83.11885524 332.32397127 C-89.91812052 328.03040464 -95.674471 323.93644095 -100.78291774 317.61694002 C-102.4955976 315.43405324 -102.4955976 315.43405324 -105.47041774 313.23412752 C-109.64826036 309.58962651 -112.40696581 305.30434706 -115.40791774 300.67162752 C-115.76240993 300.12812654 -116.11690211 299.58462557 -116.48213649 299.02465487 C-123.73971373 287.83588996 -123.73971373 287.83588996 -124.40791774 282.67162752 C-125.06791774 282.67162752 -125.72791774 282.67162752 -126.40791774 282.67162752 C-127.35779665 279.98798903 -128.29261733 277.30040673 -129.22041774 274.60912752 C-129.48145289 273.87629549 -129.74248805 273.14346346 -130.01143336 272.3884244 C-134.25386481 259.97538423 -135.85788801 247.93869889 -135.81197047 234.86791658 C-135.81769375 233.45812112 -135.82466544 232.04833027 -135.8327682 230.63854647 C-135.85050292 226.85721933 -135.84956848 223.07612671 -135.84382582 219.29477072 C-135.84070388 216.11457237 -135.84685965 212.93441716 -135.85286456 209.75422502 C-135.86684478 202.23804821 -135.86540423 194.7219852 -135.85396266 187.20580721 C-135.84249901 179.50599592 -135.85654243 171.80653368 -135.88335913 164.10676837 C-135.90566669 157.44717613 -135.91211963 150.78769222 -135.90628272 144.12806535 C-135.90294627 140.17216655 -135.90510267 136.21649103 -135.92253375 132.26062441 C-136.06904582 95.52039095 -129.03827756 65.26412015 -103.40791774 37.67162752 C-102.69248805 36.89432283 -102.69248805 36.89432283 -101.96260524 36.10131502 C-99.78088459 33.81508081 -98.46222636 32.6897304 -95.40791774 31.67162752 C-95.14623805 31.07865877 -94.88455836 30.48569002 -94.61494899 29.87475252 C-92.86853457 26.68712232 -90.12021408 25.25695191 -87.09541774 23.42162752 C-86.47022243 23.03394197 -85.84502711 22.64625643 -85.20088649 22.24682283 C-83.90406767 21.4435011 -82.60505015 20.64371847 -81.30391383 19.84740877 C-79.5447658 18.75649235 -77.81284931 17.62199377 -76.08369899 16.48412752 C-53.18123319 1.6102014 -26.57582336 -0.1215927 0 0 Z " fill="#23022E" transform="translate(180.40791773796082,492.3283724784851)"/>
<path d="M0 0 C1.08152344 0.22945312 2.16304687 0.45890625 3.27734375 0.6953125 C13.29855275 2.8370782 21.02812456 6.46180177 29 13 C29 13.66 29 14.32 29 15 C29.8353125 15.3403125 29.8353125 15.3403125 30.6875 15.6875 C41.89348816 22.04765544 50.83728087 37.2414032 58.140625 47.45703125 C59.44922624 49.24673588 60.82062885 50.99135409 62.234375 52.69921875 C64 55 64 55 64 57 C64.66 57 65.32 57 66 57 C67.64502915 59.11417823 69.17675771 61.23020646 70.6875 63.4375 C71.58587324 64.72231063 72.4856176 66.00616362 73.38671875 67.2890625 C74.0506665 68.23700684 74.0506665 68.23700684 74.72802734 69.20410156 C79.04000315 75.98623055 79.04000315 75.98623055 85 81 C87.77170651 84.73114338 88.51445847 87.36987381 88 92 C85.63698412 94.36301588 85.09523649 94.27122203 81.87890625 94.37890625 C81.03658447 94.41218018 80.1942627 94.4454541 79.32641602 94.47973633 C77.95827759 94.52070435 77.95827759 94.52070435 76.5625 94.5625 C74.62499653 94.64053902 72.6874966 94.71866561 70.75 94.796875 C68.04441867 94.89529231 65.33892188 94.98965337 62.6328125 95.07226562 C44.96629386 95.62237964 27.41998194 98.08188111 10 101 C7.9915183 101.30497877 5.98237235 101.60560822 3.97265625 101.90234375 C2.85052734 102.07056641 1.72839844 102.23878906 0.57226562 102.41210938 C-1.76318782 102.76171259 -4.09912805 103.10807966 -6.43554688 103.45117188 C-12.10451005 104.3065576 -17.51490721 105.29097478 -23 107 C-24.93083378 107.46843878 -26.86172807 107.93671561 -28.79516602 108.39428711 C-34.88063527 109.84440074 -40.64029082 111.46920658 -46.40234375 113.94140625 C-49.59810411 115.24373867 -52.84445676 116.30429089 -56.125 117.375 C-72.53825015 122.74902521 -72.53825015 122.74902521 -88.0234375 130.3046875 C-90.36364776 131.63756316 -92.70887727 132.89995282 -95.1015625 134.1328125 C-103.14893408 138.28136364 -110.7471438 142.54216507 -118 148 C-119.91505537 149.39804318 -121.83176509 150.79382262 -123.75 152.1875 C-124.66523437 152.8578125 -125.58046875 153.528125 -126.5234375 154.21875 C-128.44702294 155.60227518 -130.37707085 156.91702198 -132.375 158.1875 C-135.28805945 160.19889819 -137.51902274 162.47517631 -140 165 C-140.83660156 165.825 -141.67320312 166.65 -142.53515625 167.5 C-143.36917969 168.325 -144.20320312 169.15 -145.0625 170 C-145.89910156 170.825 -146.73570312 171.65 -147.59765625 172.5 C-150.05680868 174.97145779 -150.05680868 174.97145779 -152.18359375 177.8125 C-152.78300781 178.534375 -153.38242187 179.25625 -154 180 C-154.66 180 -155.32 180 -156 180 C-156.2475 180.70125 -156.495 181.4025 -156.75 182.125 C-160.22222222 190.11111111 -160.22222222 190.11111111 -164 192 C-165.23688775 194.25498639 -166.38780539 196.49736687 -167.5 198.8125 C-167.80808594 199.44220703 -168.11617187 200.07191406 -168.43359375 200.72070312 C-169.64892032 203.20612421 -170.85663722 205.69426802 -172.03125 208.19921875 C-173 210 -173 210 -174.4375 211.76171875 C-187.70508896 230.76753994 -187.08431745 262.9434548 -183.41503906 284.87573242 C-181.15023948 297.22906901 -178.0852735 308.96427427 -172 320 C-171.3661836 321.27688309 -170.73915685 322.55714823 -170.1171875 323.83984375 C-166.5236574 331.24852374 -162.89866413 338.35330829 -158 345 C-157.56107422 345.60376465 -157.12214844 346.2075293 -156.66992188 346.82958984 C-155.12188885 348.95536009 -153.56309384 351.07278222 -152 353.1875 C-151.50145508 353.86554688 -151.00291016 354.54359375 -150.48925781 355.2421875 C-148.04070774 358.51120255 -145.56253833 361.51969588 -142.625 364.36328125 C-140 367 -140 367 -140 369 C-139.01 369.33 -138.02 369.66 -137 370 C-135.3515625 371.70703125 -135.3515625 371.70703125 -133.625 373.8125 C-130.97272286 376.96031937 -128.2375973 379.44916576 -125 382 C-125 382.66 -125 383.32 -125 384 C-124.195625 384.3403125 -124.195625 384.3403125 -123.375 384.6875 C-119.6183997 386.76351595 -116.40880139 389.53484655 -113.4375 392.625 C-111.9122034 394.19149699 -111.9122034 394.19149699 -109.3125 395.5625 C-108.1678125 396.2740625 -108.1678125 396.2740625 -107 397 C-107 397.66 -107 398.32 -107 399 C-106.2575 399.268125 -105.515 399.53625 -104.75 399.8125 C-102.10938051 400.95276751 -100.14447156 402.09380306 -98 404 C-98 404.66 -98 405.32 -98 406 C-97.42636719 406.27199219 -96.85273437 406.54398438 -96.26171875 406.82421875 C-93.97701439 408.01194934 -91.93062987 409.35025734 -89.8125 410.8125 C-85.34903488 413.82736112 -80.73271286 416.43682862 -76 419 C-72.9375 420.6875 -72.9375 420.6875 -71 422 C-71 422.66 -71 423.32 -71 424 C-69.35 424.33 -67.7 424.66 -66 425 C-66 425.66 -66 426.32 -66 427 C-65.48953125 427.09667969 -64.9790625 427.19335938 -64.453125 427.29296875 C-61.05224339 428.27315915 -57.93589536 429.79478637 -54.75 431.3125 C-54.08266846 431.62791748 -53.41533691 431.94333496 -52.7277832 432.26831055 C-50.81632584 433.17435018 -48.90775888 434.08620393 -47 435 C-46.11183594 435.4228125 -45.22367188 435.845625 -44.30859375 436.28125 C-41.5087187 437.64251522 -39.21734724 438.78265276 -37 441 C-35.35490158 441.67974553 -33.68332288 442.29635776 -32 442.875 C-27.46751832 444.46845059 -23.01164744 446.18115633 -18.5625 447.9921875 C-14.82993988 449.46017608 -11.04265548 450.76658718 -7.25 452.0703125 C-5 453 -5 453 -3 455 C-1.40175293 455.4760736 0.19950214 455.94377556 1.8125 456.3671875 C5.30069427 457.37627227 8.66752698 458.7062398 12.05859375 460 C14.956869 460.98533661 17.86821148 461.75369302 20.8425293 462.47314453 C23.06332405 463.01546377 25.27175989 463.59406634 27.48046875 464.18359375 C34.61375099 466.08429981 41.73939711 467.98195478 48.9375 469.625 C49.948125 469.85574219 50.95875 470.08648438 52 470.32421875 C54.08155735 470.79311123 56.16505168 471.25345475 58.25 471.70703125 C70.8085815 474.58503951 70.8085815 474.58503951 74.40625 480.19140625 C75 483 75 483 73.3671875 486.41015625 C72.55515178 487.64015152 71.72355017 488.8574054 70.875 490.0625 C70.47023438 490.67416016 70.06546875 491.28582031 69.6484375 491.91601562 C67.35929272 495.30937927 64.90106487 498.10510761 62 501 C60.71219705 503.09900132 60.71219705 503.09900132 59.75 505.25 C59.24726562 506.30960938 59.24726562 506.30960938 58.734375 507.390625 C58.49203125 507.92171875 58.2496875 508.4528125 58 509 C57.34 509 56.68 509 56 509 C55.731875 509.7425 55.46375 510.485 55.1875 511.25 C54.04723249 513.89061949 52.90619694 515.85552844 51 518 C50.34 518 49.68 518 49 518 C49 518.66 49 519.32 49 520 C37.04880693 533.44509221 19.17646196 542.59008201 1.375 543.8125 C-13.54384077 544.50231739 -26.15775311 541.64973465 -40.08984375 536.65625 C-44.01642164 535.27085375 -47.91095855 534.2868193 -51.98486328 533.44555664 C-54.7327059 532.83799512 -57.34169782 531.91870364 -60 531 C-62.84439025 530.15220114 -65.70248203 529.35576521 -68.5625 528.5625 C-69.34882812 528.34295654 -70.13515625 528.12341309 -70.9453125 527.8972168 C-76.79207783 526.28400868 -82.65199841 524.89864174 -88.59375 523.67578125 C-91 523 -91 523 -93 521 C-95.74621809 520.13370374 -98.46736429 519.35362956 -101.25 518.625 C-102.89205744 518.18277542 -104.53398323 517.74006173 -106.17578125 517.296875 C-106.99256348 517.07837891 -107.8093457 516.85988281 -108.65087891 516.63476562 C-111.92382437 515.75036964 -115.18006939 514.81499107 -118.4375 513.875 C-122.55339976 512.69156 -126.67514935 511.54346769 -130.8125 510.4375 C-136.47481913 508.90308657 -142.09552921 507.23440009 -147.5 504.9375 C-150.49409403 503.81471474 -153.48993817 503.18985139 -156.62109375 502.5625 C-159.48384411 501.88559351 -162.2102638 500.93437743 -165 500 C-167.86595324 499.15458816 -170.74466141 498.35732838 -173.625 497.5625 C-174.42188232 497.34078125 -175.21876465 497.1190625 -176.03979492 496.890625 C-180.44681589 495.67280767 -184.8596005 494.54039708 -189.3125 493.5 C-194.6687498 492.19972419 -199.6458471 490.24032724 -204.7578125 488.19921875 C-208.82673225 486.69420867 -212.92435519 485.64553536 -217.1484375 484.67578125 C-220.46685593 483.88936154 -223.72428512 482.94878 -227 482 C-229.91491517 481.18119199 -232.83257389 480.3723094 -235.75 479.5625 C-236.54277344 479.34150635 -237.33554687 479.1205127 -238.15234375 478.89282227 C-242.42602727 477.70370294 -246.70661904 476.55377905 -251 475.4375 C-255.38454898 474.25394077 -259.50696425 472.66422896 -263.6953125 470.91796875 C-266.75067002 469.70100431 -269.81983155 468.82960916 -273 468 C-273 467.34 -273 466.68 -273 466 C-273.7425 465.87625 -274.485 465.7525 -275.25 465.625 C-277.80141485 465.04513299 -279.7267573 464.26291261 -282 463 C-282 462.34 -282 461.68 -282 461 C-282.58394531 460.89558594 -283.16789063 460.79117187 -283.76953125 460.68359375 C-292.5434875 457.99455287 -301.38349147 446.21415601 -305.75 438.5625 C-306.51572902 437.04952508 -307.26537846 435.52832104 -308 434 C-308.43054688 433.18144531 -308.86109375 432.36289063 -309.3046875 431.51953125 C-315.1974769 419.71651815 -316.15673438 407.90767925 -316.515625 394.9375 C-316.55510254 393.64067795 -316.59458008 392.3438559 -316.63525391 391.00773621 C-316.76569847 386.67205672 -316.88408293 382.33608942 -317 378 C-317.02035812 377.24133762 -317.04071625 376.48267525 -317.06169128 375.7010231 C-317.37154139 364.09952303 -317.65693102 352.49744229 -317.9375 340.89520264 C-318.2636721 327.41671408 -318.59468845 313.93835006 -318.9375 300.46027374 C-318.97934641 298.81301573 -319.02101154 297.16575309 -319.0625 295.51848602 C-319.18410486 290.69515797 -319.30927608 285.87194714 -319.43969727 281.04884911 C-319.47907015 279.57593892 -319.51736722 278.10299947 -319.55444336 276.63002968 C-319.75592439 268.66522545 -320.13204582 260.7452623 -320.79052734 252.80366516 C-321.0470174 249.37070046 -321.09831477 246.00469769 -321.0625 242.5625 C-321.05476563 241.31855469 -321.04703125 240.07460937 -321.0390625 238.79296875 C-321.02617187 237.54128906 -321.01328125 236.28960938 -321 235 C-320.97445604 232.45837631 -320.95343544 229.91670209 -320.9375 227.375 C-320.92589844 226.26898437 -320.91429687 225.16296875 -320.90234375 224.0234375 C-320.99319826 221.210582 -321.42890411 218.74533155 -322 216 C-322.06674664 214.39057166 -322.08535735 212.77861838 -322.0625 211.16796875 C-322.05404053 210.21946045 -322.04558105 209.27095215 -322.03686523 208.29370117 C-322.01861694 206.75613159 -322.01861694 206.75613159 -322 205.1875 C-321.93760898 194.67816776 -322.11884478 184.19073993 -322.4375 173.6875 C-322.45723877 172.98305756 -322.47697754 172.27861511 -322.49731445 171.55282593 C-322.5545008 169.53897822 -322.6189071 167.5253395 -322.68359375 165.51171875 C-322.72025146 164.35115967 -322.75690918 163.19060059 -322.79467773 161.99487305 C-322.90061266 159.11708963 -322.90061266 159.11708963 -323.55029297 156.85961914 C-324.0917896 154.62043355 -323.88196477 153.0027944 -323.51171875 150.734375 C-323.38216797 149.92613281 -323.25261719 149.11789062 -323.11914062 148.28515625 C-322.90547852 147.03025391 -322.90547852 147.03025391 -322.6875 145.75 C-322.55666016 144.92886719 -322.42582031 144.10773438 -322.29101562 143.26171875 C-321.00221206 135.40437526 -319.3432427 128.23807172 -315.875 121 C-315.33617187 119.865625 -314.79734375 118.73125 -314.2421875 117.5625 C-313.62730469 116.2940625 -313.62730469 116.2940625 -313 115 C-312.34 115 -311.68 115 -311 115 C-310.92265625 114.44183594 -310.8453125 113.88367188 -310.765625 113.30859375 C-309.7323473 110.19294519 -307.97990421 108.45853945 -305.75 106.0625 C-304.98171875 105.22847656 -304.2134375 104.39445313 -303.421875 103.53515625 C-302.62265625 102.69855469 -301.8234375 101.86195313 -301 101 C-300.2265625 100.16726563 -299.453125 99.33453125 -298.65625 98.4765625 C-295.56835529 95.59755479 -292.36696397 93.46284312 -288.75 91.3125 C-287.7607251 90.71779907 -287.7607251 90.71779907 -286.75146484 90.11108398 C-281.88819415 87.28638488 -277.5810082 85.86601851 -272 85 C-271.67 84.34 -271.34 83.68 -271 83 C-269.1015625 82.32421875 -269.1015625 82.32421875 -266.625 81.6875 C-262.85046438 80.62807463 -259.45832078 79.34497217 -255.9375 77.625 C-250.5047373 75.05565923 -244.96437294 73.38528013 -239.18920898 71.78759766 C-234.34726665 70.44258204 -229.67731426 68.83642783 -225 67 C-217.33333333 64 -217.33333333 64 -214 64 C-214 63.34 -214 62.68 -214 62 C-208.78739043 60.2853908 -203.57293954 58.57654871 -198.35668945 56.87304688 C-196.58208112 56.2926024 -194.8079883 55.71057938 -193.03442383 55.12695312 C-190.48652564 54.28881934 -187.93683353 53.45636134 -185.38671875 52.625 C-184.59287277 52.36251465 -183.79902679 52.1000293 -182.98112488 51.82958984 C-179.88232071 50.82426476 -177.27972911 50 -174 50 C-174 49.34 -174 48.68 -174 48 C-173.46375 47.87882813 -172.9275 47.75765625 -172.375 47.6328125 C-169.51528967 46.87085021 -166.78234472 45.88493763 -164 44.875 C-157.7998591 42.64294928 -151.59198248 40.43474149 -145.375 38.25 C-144.51003906 37.94433105 -143.64507813 37.63866211 -142.75390625 37.32373047 C-141.93535156 37.03643066 -141.11679687 36.74913086 -140.2734375 36.453125 C-139.54560059 36.19692383 -138.81776367 35.94072266 -138.06787109 35.67675781 C-136.06047621 35.01979221 -134.05041071 34.50293603 -132 34 C-130.72314476 33.51558482 -129.45225728 33.01517608 -128.1875 32.5 C-124.43965203 31.05852001 -120.98666329 30.41527743 -117 30 C-117 29.34 -117 28.68 -117 28 C-107.95322714 24.6519817 -98.83371598 21.57060267 -89.66015625 18.58984375 C-88.10675667 18.08077238 -86.55337123 17.57165786 -85 17.0625 C-84.28900146 16.83385254 -83.57800293 16.60520508 -82.84545898 16.36962891 C-78.61367723 14.97834508 -74.52706067 13.39545485 -70.43359375 11.63671875 C-63.78363914 8.82644055 -56.99956597 6.5882739 -50.12475586 4.40527344 C-48.03883006 3.74247897 -45.95582834 3.07104037 -43.87304688 2.3984375 C-29.19441458 -2.30819146 -15.12904416 -3.93403717 0 0 Z M-275.2421875 127.4765625 C-282.32834372 136.48350832 -285.83159045 146.05042644 -285.45703125 157.55078125 C-283.91849616 169.16211875 -279.49454055 177.90996138 -271 186 C-269.7625 187.2684375 -269.7625 187.2684375 -268.5 188.5625 C-261.51798894 194.25221082 -249.84745588 196.4908911 -241 196 C-228.78949688 194.10403624 -219.35929185 190.40169755 -211 181 C-210.53464844 180.48824219 -210.06929687 179.97648437 -209.58984375 179.44921875 C-203.28161198 171.6748536 -201.19259239 161.05720379 -201.55859375 151.2578125 C-203.15116828 139.50376689 -209.50725097 127.80887331 -219 120.5625 C-236.59263634 109.98852868 -261.34388463 112.12547536 -275.2421875 127.4765625 Z " fill="#23022E" transform="translate(826,871)"/>
<path d="M0 0 C1.5706144 -0.00525696 1.5706144 -0.00525696 3.17295837 -0.01062012 C6.59909903 -0.01934934 10.02502949 -0.01361954 13.45117188 -0.00683594 C15.85290567 -0.00818512 18.2546392 -0.01012775 20.65637207 -0.01263428 C25.67605199 -0.01557362 30.69566045 -0.01132623 35.71533203 -0.00195312 C42.12724751 0.00944059 48.5389955 0.00287474 54.95090485 -0.00909805 C59.90620164 -0.0163488 64.86145918 -0.01401397 69.8167572 -0.00884247 C72.18008952 -0.00751486 74.54342548 -0.0091223 76.90675354 -0.01380157 C80.21787872 -0.01891981 83.5287382 -0.01108251 86.83984375 0 C87.80224472 -0.00404846 88.76464569 -0.00809692 89.75621033 -0.01226807 C98.18560846 0.03960943 106.09871853 1.02023952 113.91992188 4.25878906 C116.02068718 4.81350095 118.12525772 5.35390289 120.23242188 5.88378906 C133.55129718 9.66724316 144.64685708 15.95728543 154.91992188 25.25878906 C155.78230469 25.99097656 156.6446875 26.72316406 157.53320312 27.47753906 C163.35269806 32.49343151 168.59935653 37.87448999 172.91992188 44.25878906 C172.91992188 44.91878906 172.91992188 45.57878906 172.91992188 46.25878906 C173.57992188 46.25878906 174.23992187 46.25878906 174.91992188 46.25878906 C182.96731449 59.77840866 189.34696047 73.26109522 191.52539062 88.95800781 C191.68465069 91.2159933 191.68465069 91.2159933 192.91992188 92.25878906 C193.02211403 93.73485804 193.05510923 95.2157806 193.06036377 96.69537354 C193.06607391 97.65400299 193.07178406 98.61263245 193.07766724 99.60031128 C193.0787851 100.66097809 193.07990295 101.7216449 193.08105469 102.81445312 C193.08601959 103.92513153 193.0909845 105.03580994 193.09609985 106.18014526 C193.110778 109.87824106 193.11753607 113.57629384 193.12304688 117.27441406 C193.12879771 119.84259035 193.13455545 122.41076662 193.14031982 124.97894287 C193.14950075 129.68815566 193.15579176 134.39735123 193.15881658 139.10657144 C193.16327729 146.01268007 193.18072374 152.91858879 193.20981717 159.8246367 C193.23418717 165.8201743 193.24176847 171.81561874 193.24349213 177.81121063 C193.24650669 180.35153027 193.25449449 182.89184932 193.26767731 185.43213654 C193.38970267 210.77441263 193.38970267 210.77441263 189.91992188 221.25878906 C189.55438202 222.48060883 189.55438202 222.48060883 189.18145752 223.72711182 C186.24547662 233.38637354 182.03994786 242.57777614 176.91992188 251.25878906 C176.36304688 252.26941406 175.80617188 253.28003906 175.23242188 254.32128906 C174.79929687 254.96066406 174.36617187 255.60003906 173.91992188 256.25878906 C173.25992187 256.25878906 172.59992188 256.25878906 171.91992188 256.25878906 C171.74203125 256.92265625 171.56414062 257.58652344 171.38085938 258.27050781 C169.23672247 262.6562424 165.99829501 265.66724983 162.54492188 269.07128906 C161.82755859 269.7825293 161.11019531 270.49376953 160.37109375 271.2265625 C141.80145558 289.25878906 141.80145558 289.25878906 131.91992188 289.25878906 C131.91992188 289.91878906 131.91992188 290.57878906 131.91992188 291.25878906 C112.85528753 299.35492498 94.25118492 301.03255695 73.71289062 300.95800781 C71.24831299 300.96393984 68.78373823 300.97119605 66.31916809 300.97969055 C61.18845447 300.99147594 56.05817722 300.98502323 50.92749023 300.96557617 C44.42604756 300.94272418 37.92591523 300.96948319 31.42460155 301.01063824 C26.34429922 301.03649301 21.26429887 301.03356138 16.18395424 301.02274513 C13.79031497 301.02128135 11.39664979 301.02867551 9.00307274 301.04599571 C-3.51161582 301.12188166 -15.33610518 300.45040169 -27.55541992 297.58618164 C-28.55319615 297.35371829 -29.55097239 297.12125494 -30.57898426 296.88174725 C-37.72950678 295.02509077 -43.72951336 291.98196753 -50.08007812 288.25878906 C-51.31452166 287.60178743 -52.55233444 286.95103617 -53.79492188 286.30957031 C-62.42439032 281.65488733 -69.19713068 276.21842673 -76.08007812 269.25878906 C-76.94375 268.40542969 -77.80742188 267.55207031 -78.69726562 266.67285156 C-83.63326078 261.55233323 -87.74640576 256.10153441 -91.58007812 250.13378906 C-92.0017627 249.48901611 -92.42344727 248.84424316 -92.85791016 248.17993164 C-95.81799436 243.3854205 -97.16486088 238.8028935 -98.08007812 233.25878906 C-98.74007813 233.25878906 -99.40007812 233.25878906 -100.08007812 233.25878906 C-107.13363414 217.13637531 -106.52694756 199.93709105 -106.47851562 182.70019531 C-106.48054146 180.14061907 -106.48345711 177.5810434 -106.48721313 175.02146912 C-106.49161329 169.68018517 -106.48557476 164.33905761 -106.47119141 158.99780273 C-106.45488014 152.87085516 -106.46015669 146.74420749 -106.47667062 140.61726719 C-106.49206176 134.66281365 -106.49025897 128.70845113 -106.48152542 122.75398064 C-106.47954228 120.24767959 -106.48191534 117.74137073 -106.48896408 115.23507881 C-106.56547746 80.39031569 -106.56547746 80.39031569 -99.08007812 66.25878906 C-98.47964651 65.00161378 -97.88373235 63.74227627 -97.29101562 62.48144531 C-93.58355637 54.68400392 -89.70609622 47.85782137 -84.08007812 41.25878906 C-83.48839844 40.4634375 -82.89671875 39.66808594 -82.28710938 38.84863281 C-76.38038958 30.96894682 -68.62882992 22.47080064 -59.08007812 19.25878906 C-59.08007812 18.59878906 -59.08007812 17.93878906 -59.08007812 17.25878906 C-40.80882285 6.60844596 -21.32886913 -0.0897226 0 0 Z " fill="#23022E" transform="translate(1162.080078125,539.7412109375)"/>
<path d="M0 0 C2.0806639 -0.00389474 4.16132702 -0.00823099 6.24198914 -0.01298523 C10.58998193 -0.02041817 14.93789349 -0.02017767 19.28588867 -0.01489258 C24.8231985 -0.00910487 30.36017308 -0.02602659 35.89742756 -0.04923725 C40.19146121 -0.06405959 44.48541573 -0.06483474 48.77947044 -0.06172752 C50.81935476 -0.06223657 52.85924401 -0.06739483 54.89910316 -0.07753944 C74.15126574 -0.16154195 93.29474434 1.41745659 108.63671875 14.30078125 C109.98592854 15.3074591 111.34016794 16.30742922 112.69921875 17.30078125 C114.01341564 18.29855015 115.32599071 19.29845981 116.63671875 20.30078125 C117.20003906 20.71457031 117.76335937 21.12835937 118.34375 21.5546875 C126.20647178 27.72333339 133.1957847 36.82676733 136.78125 46.15234375 C137.72158765 48.51392232 138.90674909 50.6397325 140.13671875 52.86328125 C146.86581498 66.48699595 147.229027 80.42115546 147.1328125 95.27734375 C147.13296797 97.26118014 147.13446488 99.24501683 147.13722229 101.22885132 C147.13859637 105.35876115 147.12621365 109.4883195 147.10327148 113.61816406 C147.07485271 118.87400747 147.07764793 124.12926997 147.0903616 129.38515663 C147.097362 133.47247153 147.08948063 137.55965543 147.07710457 141.64695358 C147.07263497 143.58355581 147.07221327 145.52017232 147.07616997 147.45677567 C147.1046479 173.64271068 140.34046197 195.41925729 122.13671875 214.98828125 C121.31171875 215.75140625 120.48671875 216.51453125 119.63671875 217.30078125 C119.06566406 217.8421875 118.49460937 218.38359375 117.90625 218.94140625 C112.88982167 223.54730851 107.54203391 226.94593443 101.63671875 230.30078125 C100.58484375 230.98140625 99.53296875 231.66203125 98.44921875 232.36328125 C87.7542524 238.43822634 75.56250962 240.45265718 63.44775391 240.44604492 C62.10728249 240.45108284 62.10728249 240.45108284 60.73973083 240.45622253 C57.80173329 240.46567854 54.86379305 240.46767288 51.92578125 240.46875 C49.87226336 240.47196604 47.81874569 240.47533037 45.76522827 240.47883606 C41.46652699 240.48481376 37.16784577 240.48667733 32.86914062 240.48608398 C27.37614005 240.48598238 21.88326879 240.49963894 16.39029884 240.51685619 C12.15051692 240.52800429 7.910766 240.53000234 3.67097092 240.52947426 C1.64649383 240.53064997 -0.37798418 240.53504865 -2.40244675 240.54280663 C-5.24023109 240.55266438 -8.07773801 240.54970584 -10.91552734 240.54370117 C-12.15492317 240.55213043 -12.15492317 240.55213043 -13.4193573 240.56072998 C-18.96838725 240.53107126 -23.999762 239.69461248 -29.36328125 238.30078125 C-30.01184271 238.14120532 -30.66040417 237.98162939 -31.328619 237.81721783 C-42.08245328 235.07979968 -50.43638128 230.79605939 -59.36328125 224.30078125 C-60.27980469 223.64980469 -61.19632813 222.99882813 -62.140625 222.328125 C-68.53368921 217.53086419 -73.78961943 211.86299169 -78.36328125 205.30078125 C-78.36328125 204.64078125 -78.36328125 203.98078125 -78.36328125 203.30078125 C-79.02328125 203.30078125 -79.68328125 203.30078125 -80.36328125 203.30078125 C-81.80770916 200.8347601 -83.21681133 198.35635216 -84.61328125 195.86328125 C-85.00902344 195.19490234 -85.40476562 194.52652344 -85.8125 193.83789062 C-93.86761021 179.24625656 -93.96801954 163.01102549 -93.89453125 146.80078125 C-93.8972349 144.668618 -93.90112452 142.53645597 -93.90612793 140.40429688 C-93.91198195 135.96342074 -93.90359347 131.52286925 -93.88476562 127.08203125 C-93.86197893 121.43744044 -93.8751242 115.79361086 -93.89905548 110.14904785 C-93.91362507 105.75450071 -93.90885675 101.36012909 -93.89854431 96.96557617 C-93.89590774 94.88631089 -93.89903637 92.80702879 -93.90846252 90.7277832 C-93.96308535 75.29946652 -93.16225396 59.76315275 -85.67578125 45.86328125 C-85.33691895 45.2091626 -84.99805664 44.55504395 -84.64892578 43.88110352 C-81.39942465 37.87626843 -77.1584828 33.13183478 -72.36328125 28.30078125 C-71.33132547 27.05994767 -70.30929582 25.81074119 -69.30078125 24.55078125 C-66.10498123 20.80337739 -62.36932339 18.12518506 -58.36328125 15.30078125 C-57.28820313 14.45 -57.28820313 14.45 -56.19140625 13.58203125 C-51.22857669 9.78496702 -46.23201689 7.19443128 -40.42578125 4.98828125 C-39.79414062 4.7459375 -39.1625 4.50359375 -38.51171875 4.25390625 C-25.91635236 -0.26816241 -13.19964091 -0.01032921 0 0 Z " fill="#23022E" transform="translate(1177.36328125,1025.69921875)"/>
<path d="M0 0 C1.24502289 -0.0098568 1.24502289 -0.0098568 2.51519775 -0.01991272 C5.25484318 -0.0395777 7.99443386 -0.05129543 10.73413086 -0.0612793 C11.67440062 -0.06535482 12.61467037 -0.06943035 13.58343315 -0.07362938 C18.56392062 -0.09446486 23.54438077 -0.1087754 28.52490234 -0.11816406 C33.64339384 -0.12920097 38.76144734 -0.16357675 43.87978458 -0.20333576 C47.83746593 -0.22961176 51.79504483 -0.23786578 55.75280571 -0.24144554 C57.63806542 -0.24628604 59.52332134 -0.25782669 61.40849495 -0.27648354 C77.40666657 -0.42492468 91.60659859 1.59056742 103.63647461 13.17700195 C106.85850478 17.27497356 109.38112098 21.48314532 111.63647461 26.17700195 C111.97290985 26.76934128 112.30934509 27.3616806 112.65597534 27.9719696 C117.16564689 37.06527933 116.23383771 47.18314345 116.20288086 57.07543945 C116.20812409 59.11748537 116.21440311 61.15952886 116.22166443 63.2015686 C116.23203929 67.46986329 116.22754983 71.73782399 116.21289062 76.00610352 C116.19571925 81.44861553 116.21919366 86.89007012 116.25438023 92.33246422 C116.2764492 96.54669049 116.27488961 100.76066752 116.26661491 104.97493362 C116.26580037 106.98019189 116.27256773 108.98546938 116.28738594 110.99067307 C116.35648985 122.03414079 116.21501011 131.28921222 110.63647461 141.17700195 C110.29439468 141.83225861 109.95231476 142.48751526 109.59986877 143.16262817 C103.49728227 154.24001591 94.01594495 161.01058127 81.94755554 164.53601074 C74.42918557 165.99148983 66.6807598 165.62665311 59.05053711 165.6105957 C57.14301367 165.61516507 55.23549187 165.62047288 53.32797241 165.6264801 C49.34219652 165.6353818 45.3566213 165.63302209 41.37084961 165.62304688 C36.29167179 165.61156679 31.21319022 165.63176919 26.13410378 165.66096401 C22.19784222 165.67941106 18.26174488 165.67901659 14.3254509 165.67332649 C12.45416666 165.67317429 10.58287057 165.67913434 8.71162796 165.69161797 C-6.26228656 165.77745016 -19.40750025 164.17990543 -31.36352539 154.17700195 C-39.36352539 144.99792113 -39.36352539 144.99792113 -39.36352539 141.17700195 C-40.02352539 141.17700195 -40.68352539 141.17700195 -41.36352539 141.17700195 C-46.31194981 130.32323995 -45.93236451 119.70785756 -45.85961914 108.01293945 C-45.85977442 105.9689631 -45.86126811 103.92498646 -45.86402893 101.88101196 C-45.86540678 97.61626016 -45.85295589 93.35184717 -45.83007812 89.0871582 C-45.80165943 83.64248338 -45.80444905 78.19836912 -45.81716824 72.75365257 C-45.82414784 68.53953325 -45.81631069 64.32554174 -45.80391121 60.11143875 C-45.79942143 58.10454423 -45.79903808 56.09763588 -45.80297661 54.0907402 C-45.80591228 51.27985586 -45.78927144 48.46972431 -45.76757812 45.65893555 C-45.77207977 44.84412216 -45.77658142 44.02930878 -45.78121948 43.18980408 C-45.69666976 36.54063665 -44.35469219 30.15933555 -41.36352539 24.17700195 C-40.70352539 24.17700195 -40.04352539 24.17700195 -39.36352539 24.17700195 C-39.15727539 23.51700195 -38.95102539 22.85700195 -38.73852539 22.17700195 C-34.15946244 12.18631915 -26.34285338 6.76555971 -16.48852539 2.30200195 C-10.96676177 0.31416705 -5.83358088 0.020196 0 0 Z " fill="#23012E" transform="translate(761.363525390625,1054.822998046875)"/>
<path d="M0 0 C1.24502289 -0.0098568 1.24502289 -0.0098568 2.51519775 -0.01991272 C5.25484318 -0.0395777 7.99443386 -0.05129543 10.73413086 -0.0612793 C11.67440062 -0.06535482 12.61467037 -0.06943035 13.58343315 -0.07362938 C18.56392062 -0.09446486 23.54438077 -0.1087754 28.52490234 -0.11816406 C33.64339384 -0.12920097 38.76144734 -0.16357675 43.87978458 -0.20333576 C47.83746593 -0.22961176 51.79504483 -0.23786578 55.75280571 -0.24144554 C57.63806542 -0.24628604 59.52332134 -0.25782669 61.40849495 -0.27648354 C77.40666657 -0.42492468 91.60659859 1.59056742 103.63647461 13.17700195 C106.85850478 17.27497356 109.38112098 21.48314532 111.63647461 26.17700195 C111.97290985 26.76934128 112.30934509 27.3616806 112.65597534 27.9719696 C117.16564689 37.06527933 116.23383771 47.18314345 116.20288086 57.07543945 C116.20812409 59.11748537 116.21440311 61.15952886 116.22166443 63.2015686 C116.23203929 67.46986329 116.22754983 71.73782399 116.21289062 76.00610352 C116.19571925 81.44861553 116.21919366 86.89007012 116.25438023 92.33246422 C116.2764492 96.54669049 116.27488961 100.76066752 116.26661491 104.97493362 C116.26580037 106.98019189 116.27256773 108.98546938 116.28738594 110.99067307 C116.35648985 122.03414079 116.21501011 131.28921222 110.63647461 141.17700195 C110.29439468 141.83225861 109.95231476 142.48751526 109.59986877 143.16262817 C103.49728227 154.24001591 94.01594495 161.01058127 81.94755554 164.53601074 C74.42918557 165.99148983 66.6807598 165.62665311 59.05053711 165.6105957 C57.14301367 165.61516507 55.23549187 165.62047288 53.32797241 165.6264801 C49.34219652 165.6353818 45.3566213 165.63302209 41.37084961 165.62304688 C36.29167179 165.61156679 31.21319022 165.63176919 26.13410378 165.66096401 C22.19784222 165.67941106 18.26174488 165.67901659 14.3254509 165.67332649 C12.45416666 165.67317429 10.58287057 165.67913434 8.71162796 165.69161797 C-6.26228656 165.77745016 -19.40750025 164.17990543 -31.36352539 154.17700195 C-39.36352539 144.99792113 -39.36352539 144.99792113 -39.36352539 141.17700195 C-40.02352539 141.17700195 -40.68352539 141.17700195 -41.36352539 141.17700195 C-46.31194981 130.32323995 -45.93236451 119.70785756 -45.85961914 108.01293945 C-45.85977442 105.9689631 -45.86126811 103.92498646 -45.86402893 101.88101196 C-45.86540678 97.61626016 -45.85295589 93.35184717 -45.83007812 89.0871582 C-45.80165943 83.64248338 -45.80444905 78.19836912 -45.81716824 72.75365257 C-45.82414784 68.53953325 -45.81631069 64.32554174 -45.80391121 60.11143875 C-45.79942143 58.10454423 -45.79903808 56.09763588 -45.80297661 54.0907402 C-45.80591228 51.27985586 -45.78927144 48.46972431 -45.76757812 45.65893555 C-45.77207977 44.84412216 -45.77658142 44.02930878 -45.78121948 43.18980408 C-45.69666976 36.54063665 -44.35469219 30.15933555 -41.36352539 24.17700195 C-40.70352539 24.17700195 -40.04352539 24.17700195 -39.36352539 24.17700195 C-39.15727539 23.51700195 -38.95102539 22.85700195 -38.73852539 22.17700195 C-34.15946244 12.18631915 -26.34285338 6.76555971 -16.48852539 2.30200195 C-10.96676177 0.31416705 -5.83358088 0.020196 0 0 Z M-34.46118164 17.5949707 C-43.66647226 29.88823567 -43.96557041 41.93837854 -43.89477539 56.70043945 C-43.89747559 58.69381906 -43.90136239 60.68719737 -43.90637207 62.68057251 C-43.91224498 66.84454981 -43.90377747 71.00818218 -43.88500977 75.17211914 C-43.86225156 80.47650906 -43.8753378 85.7800878 -43.89929962 91.08444786 C-43.91384297 95.19747891 -43.90911221 99.31032179 -43.89878845 103.42335892 C-43.89614314 105.37754032 -43.89931249 107.3317395 -43.90870667 109.28590012 C-43.96270621 123.67582829 -43.6237744 136.97913227 -33.36352539 148.17700195 C-32.57977539 149.04325195 -31.79602539 149.90950195 -30.98852539 150.80200195 C-21.05841713 159.78638562 -11.8455079 164.31779285 1.66455078 164.33813477 C2.45876434 164.34309967 3.25297791 164.34806458 4.07125854 164.35317993 C6.69066242 164.36774648 9.31000568 164.3745952 11.92944336 164.38012695 C13.7592214 164.38588398 15.58899943 164.39164164 17.41877747 164.3973999 C21.25444824 164.40789497 25.09009815 164.41374706 28.92578125 164.41723633 C33.82019423 164.42271061 38.71432756 164.44672215 43.60865307 164.47520828 C47.38953941 164.4939137 51.17035953 164.49904451 54.95128822 164.5005722 C56.75445391 164.50358265 58.55761888 164.5115563 60.36073875 164.52475739 C76.69394838 164.6357788 88.99227906 162.47063018 101.44897461 150.86450195 C113.55523674 137.85825391 114.1042181 123.7490947 114.07006836 106.93481445 C114.07463724 104.96003033 114.0799449 102.9852478 114.08595276 101.01046753 C114.09485637 96.88345863 114.0924925 92.75664352 114.08251953 88.62963867 C114.0710389 83.36886745 114.0912418 78.1087684 114.12043667 72.8480854 C114.13887813 68.77285589 114.13849034 64.69778507 114.13279915 60.62252426 C114.13264688 58.68425428 114.13861252 56.74597289 114.15109062 54.80774307 C114.22962751 40.609659 113.59337836 28.23756251 103.63647461 17.17700195 C103.11182617 16.57243164 102.58717773 15.96786133 102.04663086 15.3449707 C94.27137371 6.94769298 84.04781951 1.50400236 72.54371643 0.87982178 C67.53769824 0.70949467 62.5315927 0.7059128 57.52319336 0.70825195 C55.66290563 0.70113694 53.80262006 0.69343602 51.94233704 0.68518066 C48.05492037 0.67178447 44.16770662 0.67014488 40.28027344 0.67602539 C35.33110188 0.68191364 30.38291394 0.65134324 25.4339323 0.61090851 C21.59455746 0.58489057 17.75541496 0.58216685 13.91596413 0.58580017 C12.0929397 0.58412176 10.26990302 0.57460438 8.44696617 0.55665588 C-9.11199886 0.40278633 -22.50079793 3.80823417 -34.46118164 17.5949707 Z " fill="#BC00F8" transform="translate(761.363525390625,1054.822998046875)"/>
<path d="M0 0 C-2.65770726 1.77180484 -4.53502736 2.56615368 -7.5 3.5625 C-18.17009722 7.79938532 -26.02930761 15.73443963 -31 26 C-33.48283546 32.1444377 -34.441287 37.56736081 -34.40405273 44.16894531 C-34.41091599 45.03695267 -34.41777924 45.90496002 -34.42485046 46.79927063 C-34.44301206 49.64239297 -34.439295 52.48495761 -34.43359375 55.328125 C-34.4381618 57.32436296 -34.44346922 59.32059935 -34.44947815 61.3168335 C-34.45838931 65.49270022 -34.45601023 69.66837552 -34.44604492 73.84423828 C-34.43457894 79.16435056 -34.45474081 84.48379672 -34.48396206 89.80382156 C-34.5024182 93.92541625 -34.50201257 98.04685423 -34.49632454 102.16847992 C-34.49617236 104.12825197 -34.50212998 106.08803536 -34.51461601 108.04776764 C-34.58832441 121.51579672 -34.63744697 134.53312516 -25.3671875 145.31640625 C-24 147 -24 147 -22.9296875 149.15234375 C-21.69445994 151.60722878 -20.49192425 151.89247811 -18 153 C-17.030625 153.66 -16.06125 154.32 -15.0625 155 C-12.39105639 156.74461623 -9.99276699 157.9437293 -7 159 C-7 159.33 -7 159.66 -7 160 C-14.0620922 159.84647626 -18.80200246 156.63335883 -24 152 C-31 143.65480427 -31 143.65480427 -31 140 C-31.66 140 -32.32 140 -33 140 C-37.94842442 129.146238 -37.56883912 118.53085561 -37.49609375 106.8359375 C-37.49624903 104.79196115 -37.49774272 102.7479845 -37.50050354 100.70401001 C-37.50188139 96.43925821 -37.4894305 92.17484522 -37.46655273 87.91015625 C-37.43813404 82.46548143 -37.44092366 77.02136717 -37.45364285 71.57665062 C-37.46062245 67.36253129 -37.4527853 63.14853979 -37.44038582 58.9344368 C-37.43589604 56.92754228 -37.43551269 54.92063393 -37.43945122 52.91373825 C-37.44238689 50.1028539 -37.42574605 47.29272236 -37.40405273 44.48193359 C-37.40855438 43.66712021 -37.41305603 42.85230682 -37.41769409 42.01280212 C-37.33314437 35.3636347 -35.9911668 28.9823336 -33 23 C-32.34 23 -31.68 23 -31 23 C-30.79375 22.34 -30.5875 21.68 -30.375 21 C-25.77805442 10.97030056 -17.94050735 5.65882073 -8.125 1.0625 C-5.17095384 0.0581243 -3.08681957 -0.28061996 0 0 Z " fill="#BE00FD" transform="translate(753,1056)"/>
<path d="M0 0 C-2.65770726 1.77180484 -4.53502736 2.56615368 -7.5 3.5625 C-18.17009722 7.79938532 -26.02930761 15.73443963 -31 26 C-33.5146027 32.20764432 -34.44406668 37.70531684 -34.43237305 44.37524414 C-34.4425647 45.2641333 -34.45275635 46.15302246 -34.46325684 47.06884766 C-34.49318232 49.97434967 -34.5026213 52.87952092 -34.51171875 55.78515625 C-34.52858062 57.81254657 -34.54673287 59.83992653 -34.56611633 61.86729431 C-34.61345866 67.17887128 -34.64336987 72.49040624 -34.66955566 77.80212402 C-34.69944096 83.23209934 -34.74594382 88.66193014 -34.79101562 94.09179688 C-34.87686926 104.72778873 -34.94429412 115.36381048 -35 126 C-35.33 126 -35.66 126 -36 126 C-36.20071404 114.3080256 -36.38437158 102.61591732 -36.54658794 90.92334175 C-36.62245003 85.49331918 -36.70406361 80.06351306 -36.79907227 74.63378906 C-36.89063894 69.38844055 -36.96676969 64.14306931 -37.03244972 58.89733505 C-37.06010367 56.90151564 -37.09320816 54.90576366 -37.13199425 52.91012955 C-37.18559738 50.10299752 -37.219362 47.29624551 -37.2487793 44.48876953 C-37.26891586 43.67380508 -37.28905243 42.85884064 -37.30979919 42.0191803 C-37.34655927 35.34062584 -36.00287927 29.00575854 -33 23 C-32.34 23 -31.68 23 -31 23 C-30.79375 22.34 -30.5875 21.68 -30.375 21 C-25.77805442 10.97030056 -17.94050735 5.65882073 -8.125 1.0625 C-5.17095384 0.0581243 -3.08681957 -0.28061996 0 0 Z " fill="#A800DF" transform="translate(753,1056)"/>
<path d="M0 0 C1.50854058 2.89693192 2.7234872 5.82016026 3.875 8.875 C5.83411567 13.82012841 7.94790599 17.94790599 11.75 21.75 C13 23 13 23 13 25 C13.53625 25.2475 14.0725 25.495 14.625 25.75 C17 27 17 27 19.9375 29 C22.60894361 30.74461623 25.00723301 31.9437293 28 33 C28 33.33 28 33.66 28 34 C20.9379078 33.84647626 16.19799754 30.63335883 11 26 C4 17.65480427 4 17.65480427 4 14 C3.34 14 2.68 14 2 14 C-0.3992233 9.35150485 -0.19957409 5.08913926 0 0 Z " fill="#AC00E3" transform="translate(718,1182)"/>
<path d="M0 0 C12.14609117 0.78361879 22.24602522 5.44792908 31 14 C31.83984375 16.78515625 31.83984375 16.78515625 32 19 C30.5459375 17.700625 30.5459375 17.700625 29.0625 16.375 C20.35998769 8.95072391 11.08927917 3.83130532 0 1 C0 0.67 0 0.34 0 0 Z " fill="#AE00E5" transform="translate(835,1055)"/>
<path d="M0 0 C1 3 1 3 0.0234375 5.19921875 C-5.27669187 13.199651 -12.21059503 18.48756959 -21.26953125 21.83984375 C-21.84058594 21.89269531 -22.41164063 21.94554687 -23 22 C-23.66 21.34 -24.32 20.68 -25 20 C-23.5459375 19.443125 -23.5459375 19.443125 -22.0625 18.875 C-12.5624018 14.74869472 -5.71702725 8.57554087 0 0 Z " fill="#B000E8" transform="translate(869,1196)"/>
<path d="M0 0 C0.66 0.33 1.32 0.66 2 1 C-1.45889719 5.17950077 -4.98286401 6.32762134 -10 8 C-10.66 7.34 -11.32 6.68 -12 6 C-10.948125 5.566875 -9.89625 5.13375 -8.8125 4.6875 C-6.42053124 3.67551322 -4.41179855 2.63400799 -2.1875 1.25 C-1.1046875 0.63125 -1.1046875 0.63125 0 0 Z " fill="#A900DE" transform="translate(856,1210)"/>
<path d="" fill="#23022E" transform="translate(0,0)"/>
<path d="" fill="#23022E" transform="translate(0,0)"/>
<path d="" fill="#23022E" transform="translate(0,0)"/>
</svg>
